# xmcd
#
# Track frame offsets:
#	150
#	14379
#	38395
#	50474
#	65768
#	78179
#	88611
#	103602
#	115365
#	126008
#	138954
#	146949
#	159118
#
# Disc length: 2222 seconds
#
# Revision: 0
# Processed by: cddbd v1.5.2PL0 Copyright (c) Steve Scherf et al.
# Submitted via: EasyCDDAExtractor 11.5.3.1
#
DISCID=a508ac0d
DTITLE=Bob Dylan - Man of Constant Sorrow: Greatest Hits
DYEAR=2014
DGENRE=Blues
TTITLE0=Man of Constant Sorrow
TTITLE1=House of the Risin' Sun
TTITLE2=In My Time of Dyin'
TTITLE3=Pretty Peggy-O
TTITLE4=See That My Grave is Kept Clean
TTITLE5=Freight Train Blues
TTITLE6=Talkin' New York
TTITLE7=Baby, Let Me Follow You Down
TTITLE8=Fixin' To Die
TTITLE9=Highway 51 Blues
TTITLE10=Gospel Plow
TTITLE11=Song to WoodyGospel Plow
TTITLE12=You're No Good
EXTD=
EXTT0=
EXTT1=
EXTT2=
EXTT3=
EXTT4=
EXTT5=
EXTT6=
EXTT7=
EXTT8=
EXTT9=
EXTT10=
EXTT11=
EXTT12=
PLAYORDER=
